<svg width="14" height="15" viewBox="0 0 14 15" fill="none" xmlns="http://www.w3.org/2000/svg">
<path d="M3 0.833252L1 3.49992V12.8333C1 13.1869 1.14048 13.526 1.39052 13.7761C1.64057 14.0261 1.97971 14.1666 2.33333 14.1666H11.6667C12.0203 14.1666 12.3594 14.0261 12.6095 13.7761C12.8595 13.526 13 13.1869 13 12.8333V3.49992L11 0.833252H3Z" stroke="white" stroke-width="1.5" stroke-linecap="round" stroke-linejoin="round"/>
<path d="M1 3.49976H13" stroke="white" stroke-width="1.5" stroke-linecap="round" stroke-linejoin="round"/>
<path d="M9.66683 6.16626C9.66683 6.8735 9.38588 7.55178 8.88578 8.05188C8.38568 8.55198 7.70741 8.83293 7.00016 8.83293C6.29292 8.83293 5.61464 8.55198 5.11454 8.05188C4.61445 7.55178 4.3335 6.8735 4.3335 6.16626" stroke="white" stroke-width="1.5" stroke-linecap="round" stroke-linejoin="round"/>
</svg>
